HIERARCHY
ROOT hip
{
  OFFSET 0 90.174 2.4664
  CHANNELS 6 Xposition Yposition Zposition Zrotation Xrotation Yrotation
  JOINT abdomen
  {
    OFFSET 0 -1.186 -1.5018
    CHANNELS 6 Xposition Yposition Zposition Zrotation Xrotation Yrotation
    JOINT abdomen2
    {
      OFFSET 0 9.964 0.2134
      CHANNELS 6 Xposition Yposition Zposition Zrotation Xrotation Yrotation
      JOINT chest
      {
        OFFSET 0 13.134 -3.2573
        CHANNELS 6 Xposition Yposition Zposition Zrotation Xrotation Yrotation
        JOINT neck
        {
          OFFSET 0 20.686 -1.6905
          CHANNELS 6 Xposition Yposition Zposition Zrotation Xrotation Yrotation
          JOINT head
          {
            OFFSET 0 7.238 -0.1237
            CHANNELS 6 Xposition Yposition Zposition Zrotation Xrotation Yrotation
            End Site
            {
              OFFSET 0 0 0
            }
          }
        }
        JOINT lCollar
        {
          OFFSET 1.7069 20.075 5.0056
          CHANNELS 6 Xposition Yposition Zposition Zrotation Xrotation Yrotation
          JOINT lShldr
          {
            OFFSET 13.6458 -0.047 -4.849
            CHANNELS 6 Xposition Yposition Zposition Zrotation Xrotation Yrotation
            JOINT lForeArm
            {
              OFFSET 28.3255 -0.9759 2.2888
              CHANNELS 6 Xposition Yposition Zposition Zrotation Xrotation Yrotation
              JOINT lHand
              {
                OFFSET 22.1583 -0.53 10.8316
                CHANNELS 6 Xposition Yposition Zposition Zrotation Xrotation Yrotation
                JOINT lThumb1
                {
                  OFFSET 0.786 0.112 2.5817
                  CHANNELS 6 Xposition Yposition Zposition Zrotation Xrotation Yrotation
                  JOINT lThumb2
                  {
                    OFFSET 0.3601 -0.878 4.2331
                    CHANNELS 6 Xposition Yposition Zposition Zrotation Xrotation Yrotation
                    JOINT lThumb2_End
                    {
                      OFFSET 1.8127 -1.216 2.2227
                      CHANNELS 6 Xposition Yposition Zposition Zrotation Xrotation Yrotation
                      End Site
                      {
                        OFFSET 0.0181 -0.0122 0.0222
                      }
                    }
                  }
                }
                JOINT lCarpal1
                {
                  OFFSET 0.9571 1.114 1.7695
                  CHANNELS 6 Xposition Yposition Zposition Zrotation Xrotation Yrotation
                  JOINT lIndex1
                  {
                    OFFSET 4.1246 0.487 4.1451
                    CHANNELS 6 Xposition Yposition Zposition Zrotation Xrotation Yrotation
                    JOINT lIndex2
                    {
                      OFFSET 3.4052 -1.454 2.7682
                      CHANNELS 6 Xposition Yposition Zposition Zrotation Xrotation Yrotation
                      JOINT lIndex2_End
                      {
                        OFFSET 1.4531 -1.795 1.2713
                        CHANNELS 6 Xposition Yposition Zposition Zrotation Xrotation Yrotation
                        End Site
                        {
                          OFFSET 0.0145 -0.0179 0.0127
                        }
                      }
                    }
                  }
                  JOINT lMid1
                  {
                    OFFSET 5.6954 0.21 2.1184
                    CHANNELS 6 Xposition Yposition Zposition Zrotation Xrotation Yrotation
                    JOINT lMid2
                    {
                      OFFSET 3.9766 -1.54 2.3863
                      CHANNELS 6 Xposition Yposition Zposition Zrotation Xrotation Yrotation
                      JOINT lMid2_End
                      {
                        OFFSET 1.4042 -1.926 1.125
                        CHANNELS 6 Xposition Yposition Zposition Zrotation Xrotation Yrotation
                        End Site
                        {
                          OFFSET 0.014 -0.0193 0.0113
                        }
                      }
                    }
                  }
                }
                JOINT lCarpal2
                {
                  OFFSET 2.0956 0.66 -0.3894
                  CHANNELS 6 Xposition Yposition Zposition Zrotation Xrotation Yrotation
                  JOINT lRing1
                  {
                    OFFSET 5.0395 -0.09 2.4971
                    CHANNELS 6 Xposition Yposition Zposition Zrotation Xrotation Yrotation
                    JOINT lRing2
                    {
                      OFFSET 3.7921 -1.552 1.4806
                      CHANNELS 6 Xposition Yposition Zposition Zrotation Xrotation Yrotation
                      JOINT lRing2_End
                      {
                        OFFSET 1.4655 -1.808 0.9609
                        CHANNELS 6 Xposition Yposition Zposition Zrotation Xrotation Yrotation
                        End Site
                        {
                          OFFSET 0.0147 -0.0181 0.0096
                        }
                      }
                    }
                  }
                  JOINT lPinky1
                  {
                    OFFSET 4.9141 -1.269 0.3591
                    CHANNELS 6 Xposition Yposition Zposition Zrotation Xrotation Yrotation
                    JOINT lPinky2
                    {
                      OFFSET 3.1477 -1.685 0.8462
                      CHANNELS 6 Xposition Yposition Zposition Zrotation Xrotation Yrotation
                      JOINT lPinky2_End
                      {
                        OFFSET 0.8055 -1.585 0.7955
                        CHANNELS 6 Xposition Yposition Zposition Zrotation Xrotation Yrotation
                        End Site
                        {
                          OFFSET 0.0081 -0.0158 0.008
                        }
                      }
                    }
                  }
                }
              }
            }
          }
        }
        JOINT rCollar
        {
          OFFSET -1.7069 20.075 5.0056
          CHANNELS 6 Xposition Yposition Zposition Zrotation Xrotation Yrotation
          JOINT rShldr
          {
            OFFSET -13.6458 -0.047 -4.849
            CHANNELS 6 Xposition Yposition Zposition Zrotation Xrotation Yrotation
            JOINT rForeArm
            {
              OFFSET -28.3255 -0.9759 2.2888
              CHANNELS 6 Xposition Yposition Zposition Zrotation Xrotation Yrotation
              JOINT rHand
              {
                OFFSET -22.1583 -0.53 10.8316
                CHANNELS 6 Xposition Yposition Zposition Zrotation Xrotation Yrotation
                JOINT rThumb1
                {
                  OFFSET -0.786 0.112 2.5817
                  CHANNELS 6 Xposition Yposition Zposition Zrotation Xrotation Yrotation
                  JOINT rThumb2
                  {
                    OFFSET -0.3601 -0.878 4.2331
                    CHANNELS 6 Xposition Yposition Zposition Zrotation Xrotation Yrotation
                    JOINT rThumb2_End
                    {
                      OFFSET -1.8127 -1.216 2.2227
                      CHANNELS 6 Xposition Yposition Zposition Zrotation Xrotation Yrotation
                      End Site
                      {
                        OFFSET -0.0181 -0.0122 0.0222
                      }
                    }
                  }
                }
                JOINT rCarpal1
                {
                  OFFSET -0.9571 1.114 1.7695
                  CHANNELS 6 Xposition Yposition Zposition Zrotation Xrotation Yrotation
                  JOINT rIndex1
                  {
                    OFFSET -4.1246 0.487 4.1451
                    CHANNELS 6 Xposition Yposition Zposition Zrotation Xrotation Yrotation
                    JOINT rIndex2
                    {
                      OFFSET -3.4052 -1.454 2.7682
                      CHANNELS 6 Xposition Yposition Zposition Zrotation Xrotation Yrotation
                      JOINT rIndex2_End
                      {
                        OFFSET -1.4531 -1.795 1.2713
                        CHANNELS 6 Xposition Yposition Zposition Zrotation Xrotation Yrotation
                        End Site
                        {
                          OFFSET -0.0145 -0.018 0.0127
                        }
                      }
                    }
                  }
                  JOINT rMid1
                  {
                    OFFSET -5.6954 0.21 2.1184
                    CHANNELS 6 Xposition Yposition Zposition Zrotation Xrotation Yrotation
                    JOINT rMid2
                    {
                      OFFSET -3.9766 -1.54 2.3863
                      CHANNELS 6 Xposition Yposition Zposition Zrotation Xrotation Yrotation
                      JOINT rMid2_End
                      {
                        OFFSET -1.4042 -1.926 1.125
                        CHANNELS 6 Xposition Yposition Zposition Zrotation Xrotation Yrotation
                        End Site
                        {
                          OFFSET -0.014 -0.0193 0.0113
                        }
                      }
                    }
                  }
                }
                JOINT rCarpal2
                {
                  OFFSET -2.0956 0.66 -0.3894
                  CHANNELS 6 Xposition Yposition Zposition Zrotation Xrotation Yrotation
                  JOINT rRing1
                  {
                    OFFSET -5.0395 -0.09 2.4971
                    CHANNELS 6 Xposition Yposition Zposition Zrotation Xrotation Yrotation
                    JOINT rRing2
                    {
                      OFFSET -3.7921 -1.552 1.4806
                      CHANNELS 6 Xposition Yposition Zposition Zrotation Xrotation Yrotation
                      JOINT rRing2_End
                      {
                        OFFSET -1.4655 -1.808 0.9609
                        CHANNELS 6 Xposition Yposition Zposition Zrotation Xrotation Yrotation
                        End Site
                        {
                          OFFSET -0.0147 -0.0181 0.0096
                        }
                      }
                    }
                  }
                  JOINT rPinky1
                  {
                    OFFSET -4.9141 -1.269 0.3592
                    CHANNELS 6 Xposition Yposition Zposition Zrotation Xrotation Yrotation
                    JOINT rPinky2
                    {
                      OFFSET -3.1477 -1.685 0.8462
                      CHANNELS 6 Xposition Yposition Zposition Zrotation Xrotation Yrotation
                      JOINT rPinky2_End
                      {
                        OFFSET -0.8055 -1.585 0.7955
                        CHANNELS 6 Xposition Yposition Zposition Zrotation Xrotation Yrotation
                        End Site
                        {
                          OFFSET -0.0081 -0.0158 0.008
                        }
                      }
                    }
                  }
                }
              }
            }
          }
        }
      }
    }
  }
  JOINT lThigh
  {
    OFFSET 8.367 -8.2066 0.5982
    CHANNELS 6 Xposition Yposition Zposition Zrotation Xrotation Yrotation
    JOINT lShin
    {
      OFFSET 2.1923 -43.463 -0.4932
      CHANNELS 6 Xposition Yposition Zposition Zrotation Xrotation Yrotation
      JOINT lFoot
      {
        OFFSET 0.7333 -45.8593 -2.6451
        CHANNELS 6 Xposition Yposition Zposition Zrotation Xrotation Yrotation
        End Site
        {
          OFFSET 2.6618 -4.2699 12.3931
        }
      }
    }
  }
  JOINT rThigh
  {
    OFFSET -8.367 -8.2066 0.5982
    CHANNELS 6 Xposition Yposition Zposition Zrotation Xrotation Yrotation
    JOINT rShin
    {
      OFFSET -2.1923 -43.463 -0.4931
      CHANNELS 6 Xposition Yposition Zposition Zrotation Xrotation Yrotation
      JOINT rFoot
      {
        OFFSET -0.7333 -45.8593 -2.6451
        CHANNELS 6 Xposition Yposition Zposition Zrotation Xrotation Yrotation
        End Site
        {
          OFFSET -2.6618 -4.2699 12.3931
        }
      }
    }
  }
}
MOTION
Frames:	4
Frame Time:	0.0333333
0 90.174 2.4664 0 0 -0 0 -1.186 -1.5018 0 0 -0 0 9.964 0.2134 0 0 -0 0 13.134 -3.2573 0 0 -0 0 20.686 -1.6905 0 0 -0 0 7.238 -0.1237 0 0 -0 1.7069 20.075 5.0056 0 0 -0 13.6458 -0.047 -4.849 1.66051 0.0835086 5.75766 28.3255 -0.9759 2.2888 -0.0175111 0.895433 15.7816 22.1583 -0.53 10.8316 7.95139e-016 -1.98785e-016 -0 0.786 0.112 2.5817 5.46658e-016 -3.97569e-016 -0 0.3601 -0.878 4.2331 5.96354e-016 0 -0 1.8127 -1.216 2.2227 3.97569e-016 1.98785e-016 9.54166e-015 0.9571 1.114 1.7695 1.49089e-016 -3.97569e-016 -0 4.1246 0.487 4.1451 6.4605e-016 0 3.18055e-015 3.4052 -1.454 2.7682 5.96354e-016 0 3.18055e-015 1.4531 -1.795 1.2713 8.94531e-016 -1.98785e-016 6.36111e-015 5.6954 0.21 2.1184 6.4605e-016 0 3.18055e-015 3.9766 -1.54 2.3863 5.96354e-016 0 3.18055e-015 1.4042 -1.926 1.125 8.94531e-016 -1.98785e-016 6.36111e-015 2.0956 0.66 -0.3894 1.49089e-016 -3.97569e-016 -0 5.0395 -0.09 2.4971 6.4605e-016 0 3.18055e-015 3.7921 -1.552 1.4806 5.96354e-016 0 3.18055e-015 1.4655 -1.808 0.9609 8.94531e-016 -1.98785e-016 6.36111e-015 4.9141 -1.269 0.3591 6.4605e-016 0 3.18055e-015 3.1477 -1.685 0.8462 5.96354e-016 0 3.18055e-015 0.8055 -1.585 0.7955 8.94531e-016 -1.98785e-016 6.36111e-015 -1.7069 20.075 5.0056 0 0 -0 -13.6458 -0.047 -4.849 -1.4496 0.0636048 -5.0245 -28.3255 -0.9759 2.2888 -1.74811 1.20616 -16.8394 -22.1583 -0.53 10.8316 -1.19271e-015 1.98785e-016 -3.18055e-015 -0.786 0.112 2.5817 -3.97569e-016 1.98785e-016 -3.18055e-015 -0.3601 -0.878 4.2331 -2.98177e-016 1.98785e-016 -3.18055e-015 -1.8127 -1.216 2.2227 -2.98177e-016 3.97569e-016 -0 -0.9571 1.114 1.7695 4.96962e-016 0 -6.36111e-015 -4.1246 0.487 4.1451 -9.93923e-017 3.97569e-016 -0 -3.4052 -1.454 2.7682 -8.94531e-016 5.96354e-016 -0 -1.4531 -1.795 1.2713 -3.97569e-016 3.97569e-016 -0 -5.6954 0.21 2.1184 -9.93923e-017 3.97569e-016 -0 -3.9766 -1.54 2.3863 -8.94531e-016 5.96354e-016 -0 -1.4042 -1.926 1.125 -3.97569e-016 3.97569e-016 -0 -2.0956 0.66 -0.3894 4.96962e-016 0 -6.36111e-015 -5.0395 -0.09 2.4971 -9.93923e-017 3.97569e-016 -0 -3.7921 -1.552 1.4806 -8.94531e-016 5.96354e-016 -0 -1.4655 -1.808 0.9609 -3.97569e-016 3.97569e-016 -0 -4.9141 -1.269 0.3592 -9.93923e-017 3.97569e-016 -0 -3.1477 -1.685 0.8462 -8.94531e-016 5.96354e-016 -0 -0.8055 -1.585 0.7955 -3.97569e-016 3.97569e-016 -0 8.367 -8.2066 0.5982 -4.66115 -1.03232 0.120763 2.1923 -43.463 -0.4932 0.00990601 1.55097 0.177175 0.7333 -45.8593 -2.6451 4.65196 -0.54114 -0.255042 -8.367 -8.2066 0.5982 4.66115 -1.03222 -0.120763 -2.1923 -43.463 -0.4931 -0.00990459 1.5509 -0.177176 -0.7333 -45.8593 -2.6451 -4.65196 -0.541171 0.255041 
0.00745794 75.7863 65.3494 180 75.004 -180 0 -1.186 -1.5018 -0.331629 -1.27996 -0.707435 0 9.964 0.2134 -0.679298 -2.55567 -1.4228 0 13.134 -3.2573 -0.679297 -2.55571 -1.4228 8.88178e-016 20.686 -1.6905 1.65186e-005 0.215102 2.45062e-005 0 7.238 -0.1237 -5.64486e-007 0.274528 -1.46728e-006 1.7069 20.075 5.0056 13.679 -0.553075 -42.7965 13.6458 -0.047 -4.849 -14.4874 -26.9428 -19.7156 28.3255 -0.9759 2.2888 14.3151 -4.01728 -10.0605 22.1583 -0.53 10.8316 38.1243 -23.9081 -0.0888885 0.786 0.112 2.5817 2.64834e-031 -4.77083e-015 3.18055e-015 0.3601 -0.878 4.2331 -1.11741e-006 -1.00566e-006 2.08587e-006 1.8127 -1.216 2.2227 1.39291e-006 1.56376e-006 8.01184e-007 0.9571 1.114 1.7695 8.82781e-032 -1.59028e-015 3.18055e-015 4.1246 0.487 4.1451 -9.54166e-015 -4.77083e-015 6.36111e-015 3.4052 -1.454 2.7682 -1.11741e-006 -1.00566e-006 2.08587e-006 1.4531 -1.795 1.2713 1.39291e-006 1.56376e-006 8.01184e-007 5.6954 0.21 2.1184 -9.54166e-015 -4.77083e-015 6.36111e-015 3.9766 -1.54 2.3863 -1.11741e-006 -1.00566e-006 2.08587e-006 1.4042 -1.926 1.125 1.39291e-006 1.56376e-006 8.01184e-007 2.0956 0.66 -0.3894 8.82781e-032 -1.59028e-015 3.18055e-015 5.0395 -0.09 2.4971 -9.54166e-015 -4.77083e-015 6.36111e-015 3.7921 -1.552 1.4806 -1.11741e-006 -1.00566e-006 2.08587e-006 1.4655 -1.808 0.9609 1.39291e-006 1.56376e-006 8.01184e-007 4.9141 -1.269 0.3591 -9.54166e-015 -4.77083e-015 6.36111e-015 3.1477 -1.685 0.8462 -1.11741e-006 -1.00566e-006 2.08587e-006 0.8055 -1.585 0.7955 1.39291e-006 1.56376e-006 8.01184e-007 -1.7069 20.075 5.0056 -13.3454 -0.198715 41.7666 -13.6458 -0.047 -4.849 15.4422 -26.4204 22.0974 -28.3255 -0.9759 2.2888 -16.4298 -4.58327 10.3986 -22.1583 -0.53 10.8316 -38.9482 -22.9191 -2.21633 -0.786 0.112 2.5817 6.36111e-015 1.59028e-015 -3.18055e-015 -0.3601 -0.878 4.2331 9.54166e-015 0 -3.18055e-015 -1.8127 -1.216 2.2227 3.18055e-015 -1.59028e-015 -3.18055e-015 -0.9571 1.114 1.7695 0 0 -3.18055e-015 -4.1246 0.487 4.1451 3.18055e-015 -3.18055e-015 -3.18055e-015 -3.4052 -1.454 2.7682 -0 -1.59028e-015 -0 -1.4531 -1.795 1.2713 8.82781e-032 1.59028e-015 -3.18055e-015 -5.6954 0.21 2.1184 3.18055e-015 -3.18055e-015 -3.18055e-015 -3.9766 -1.54 2.3863 -0 -1.59028e-015 -0 -1.4042 -1.926 1.125 8.82781e-032 1.59028e-015 -3.18055e-015 -2.0956 0.66 -0.3894 0 0 -3.18055e-015 -5.0395 -0.09 2.4971 3.18055e-015 -3.18055e-015 -3.18055e-015 -3.7921 -1.552 1.4806 -0 -1.59028e-015 -0 -1.4655 -1.808 0.9609 8.82781e-032 1.59028e-015 -3.18055e-015 -4.9141 -1.269 0.3592 3.18055e-015 -3.18055e-015 -3.18055e-015 -3.1477 -1.685 0.8462 -0 -1.59028e-015 -0 -0.8055 -1.585 0.7955 8.82781e-032 1.59028e-015 -3.18055e-015 8.367 -8.2066 0.5982 170.54 -75.9846 171.152 2.1923 -43.463 -0.4932 -5.57961 0.768533 2.23385 0.7333 -45.8593 -2.6451 10.7965 38.9454 -0.918175 -8.367 -8.2066 0.5982 -171.588 -76.6636 -170.341 -2.1923 -43.463 -0.4931 4.69674 -0.588722 -2.23629 -0.7333 -45.8593 -2.6451 -8.99261 39.8095 -1.20465 
0.00916969 75.7862 65.0874 180 75.004 -180 -3.46945e-018 -1.186 -1.5018 -0.337845 -1.59564 -0.707964 0 9.964 0.2134 -0.695801 -3.18696 -1.42616 0 13.134 -3.2573 -0.6958 -3.18695 -1.42616 -8.88178e-016 20.686 -1.6905 -2.04724e-005 0.213968 -4.10769e-005 -8.88178e-016 7.238 -0.1237 6.39501e-008 0.273233 -4.96682e-008 1.7069 20.075 5.0056 13.289 0.498458 -43.0788 13.6458 -0.047 -4.849 -14.4874 -26.9428 -19.7156 28.3255 -0.9759 2.2888 14.3151 -4.0173 -10.0605 22.1583 -0.53 10.8316 37.6849 -23.4469 -0.386701 0.786 0.112 2.5817 1.32417e-030 7.95139e-015 -9.54166e-015 0.3601 -0.878 4.2331 -7.99832e-007 1.42652e-006 4.51576e-007 1.8127 -1.216 2.2227 -1.27222e-014 1.59028e-015 -6.36111e-015 0.9571 1.114 1.7695 7.06225e-031 6.36111e-015 -6.36111e-015 4.1246 0.487 4.1451 -2.64834e-031 4.77083e-015 3.18055e-015 3.4052 -1.454 2.7682 -7.99832e-007 1.42652e-006 4.51576e-007 1.4531 -1.795 1.2713 -9.54166e-015 7.95139e-015 -6.36111e-015 5.6954 0.21 2.1184 -2.64834e-031 4.77083e-015 3.18055e-015 3.9766 -1.54 2.3863 -7.99832e-007 1.42652e-006 4.51576e-007 1.4042 -1.926 1.125 -9.54166e-015 7.95139e-015 -6.36111e-015 2.0956 0.66 -0.3894 7.06225e-031 6.36111e-015 -6.36111e-015 5.0395 -0.09 2.4971 -2.64834e-031 4.77083e-015 3.18055e-015 3.7921 -1.552 1.4806 -7.99832e-007 1.42652e-006 4.51576e-007 1.4655 -1.808 0.9609 -9.54166e-015 7.95139e-015 -6.36111e-015 4.9141 -1.269 0.3591 -2.64834e-031 4.77083e-015 3.18055e-015 3.1477 -1.685 0.8462 -7.99832e-007 1.42652e-006 4.51576e-007 0.8055 -1.585 0.7955 -9.54166e-015 7.95139e-015 -6.36111e-015 -1.7069 20.075 5.0056 -12.9758 0.807824 42.1072 -13.6458 -0.047 -4.849 15.4422 -26.4204 22.0974 -28.3255 -0.9759 2.2888 -16.4298 -4.58326 10.3986 -22.1583 -0.53 10.8316 -38.4373 -22.5227 -1.76824 -0.786 0.112 2.5817 1.83019e-006 -5.12991e-007 -3.60218e-007 -0.3601 -0.878 4.2331 -3.18055e-015 9.54166e-015 -6.36111e-015 -1.8127 -1.216 2.2227 8.82781e-031 7.95139e-015 -6.36111e-015 -0.9571 1.114 1.7695 6.36111e-015 1.59028e-015 -3.18055e-015 -4.1246 0.487 4.1451 1.83019e-006 -5.12991e-007 -3.60218e-007 -3.4052 -1.454 2.7682 -3.18055e-015 6.36111e-015 3.18055e-015 -1.4531 -1.795 1.2713 -3.18055e-015 9.54166e-015 -0 -5.6954 0.21 2.1184 1.83019e-006 -5.12991e-007 -3.60218e-007 -3.9766 -1.54 2.3863 -3.18055e-015 6.36111e-015 3.18055e-015 -1.4042 -1.926 1.125 -3.18055e-015 9.54166e-015 -0 -2.0956 0.66 -0.3894 6.36111e-015 1.59028e-015 -3.18055e-015 -5.0395 -0.09 2.4971 1.83019e-006 -5.12991e-007 -3.60218e-007 -3.7921 -1.552 1.4806 -3.18055e-015 6.36111e-015 3.18055e-015 -1.4655 -1.808 0.9609 -3.18055e-015 9.54166e-015 -0 -4.9141 -1.269 0.3592 1.83019e-006 -5.12991e-007 -3.60218e-007 -3.1477 -1.685 0.8462 -3.18055e-015 6.36111e-015 3.18055e-015 -0.8055 -1.585 0.7955 -3.18055e-015 9.54166e-015 -0 8.367 -8.2066 0.5982 170.807 -75.8605 171.215 2.1923 -43.463 -0.4932 -5.57892 0.766066 2.24528 0.7333 -45.8593 -2.6451 10.618 39.1883 -0.704607 -8.367 -8.2066 0.5982 -171.587 -76.6584 -170.34 -2.1923 -43.463 -0.4931 4.69676 -0.586643 -2.23616 -0.7333 -45.8593 -2.6451 -8.99135 39.8126 -1.20496 
0.0109044 75.786 64.8254 180 75.004 -180 0 -1.186 -1.5018 -0.343908 -1.91745 -0.708169 0 9.964 0.2134 -0.712115 -3.83043 -1.42905 -8.88178e-016 13.134 -3.2573 -0.712116 -3.83044 -1.42905 -8.88178e-016 20.686 -1.6905 -8.19176e-006 0.213037 -1.72363e-005 0 7.238 -0.1237 1.46379e-010 0.271945 -8.36881e-007 1.7069 20.075 5.0056 12.9035 1.55382 -43.3544 13.6458 -0.047 -4.849 -14.4874 -26.9428 -19.7156 28.3255 -0.9759 2.2888 14.3151 -4.0173 -10.0605 22.1583 -0.53 10.8316 37.2495 -22.9834 -0.679767 0.786 0.112 2.5817 3.18055e-015 -3.18055e-015 -0 0.3601 -0.878 4.2331 3.18055e-015 -3.18055e-015 -0 1.8127 -1.216 2.2227 9.54166e-015 -1.59028e-015 3.18055e-015 0.9571 1.114 1.7695 -3.18055e-015 -1.59028e-015 -0 4.1246 0.487 4.1451 -7.06225e-031 3.18055e-015 1.27222e-014 3.4052 -1.454 2.7682 -2.64834e-031 4.77083e-015 3.18055e-015 1.4531 -1.795 1.2713 3.18055e-015 6.36111e-015 -0 5.6954 0.21 2.1184 -7.06225e-031 3.18055e-015 1.27222e-014 3.9766 -1.54 2.3863 -2.64834e-031 4.77083e-015 3.18055e-015 1.4042 -1.926 1.125 3.18055e-015 6.36111e-015 -0 2.0956 0.66 -0.3894 -3.18055e-015 -1.59028e-015 -0 5.0395 -0.09 2.4971 -7.06225e-031 3.18055e-015 1.27222e-014 3.7921 -1.552 1.4806 -2.64834e-031 4.77083e-015 3.18055e-015 1.4655 -1.808 0.9609 3.18055e-015 6.36111e-015 -0 4.9141 -1.269 0.3591 -7.06225e-031 3.18055e-015 1.27222e-014 3.1477 -1.685 0.8462 -2.64834e-031 4.77083e-015 3.18055e-015 0.8055 -1.585 0.7955 3.18055e-015 6.36111e-015 -0 -1.7069 20.075 5.0056 -12.6114 1.81827 42.4422 -13.6458 -0.047 -4.849 15.4422 -26.4204 22.0974 -28.3255 -0.9759 2.2888 -16.4298 -4.58326 10.3986 -22.1583 -0.53 10.8316 -37.9309 -22.1224 -1.32498 -0.786 0.112 2.5817 -6.36111e-015 4.77083e-015 3.18055e-015 -0.3601 -0.878 4.2331 -6.36111e-015 1.59028e-015 3.18055e-015 -1.8127 -1.216 2.2227 -3.18055e-015 0 -0 -0.9571 1.114 1.7695 -3.18055e-015 4.77083e-015 3.18055e-015 -4.1246 0.487 4.1451 -6.36111e-015 -6.36111e-015 6.36111e-015 -3.4052 -1.454 2.7682 -3.18055e-015 3.18055e-015 3.18055e-015 -1.4531 -1.795 1.2713 -1.76556e-031 -1.59028e-015 -6.36111e-015 -5.6954 0.21 2.1184 -6.36111e-015 -6.36111e-015 6.36111e-015 -3.9766 -1.54 2.3863 -3.18055e-015 3.18055e-015 3.18055e-015 -1.4042 -1.926 1.125 -1.76556e-031 -1.59028e-015 -6.36111e-015 -2.0956 0.66 -0.3894 -3.18055e-015 4.77083e-015 3.18055e-015 -5.0395 -0.09 2.4971 -6.36111e-015 -6.36111e-015 6.36111e-015 -3.7921 -1.552 1.4806 -3.18055e-015 3.18055e-015 3.18055e-015 -1.4655 -1.808 0.9609 -1.76556e-031 -1.59028e-015 -6.36111e-015 -4.9141 -1.269 0.3592 -6.36111e-015 -6.36111e-015 6.36111e-015 -3.1477 -1.685 0.8462 -3.18055e-015 3.18055e-015 3.18055e-015 -0.8055 -1.585 0.7955 -1.76556e-031 -1.59028e-015 -6.36111e-015 8.367 -8.2066 0.5982 171.072 -75.7352 171.275 2.1923 -43.463 -0.4932 -5.57825 0.765709 2.25687 0.7333 -45.8593 -2.6451 10.4376 39.4298 -0.489159 -8.367 -8.2066 0.5982 -171.584 -76.6545 -170.337 -2.1923 -43.463 -0.4931 4.69677 -0.587184 -2.23584 -0.7333 -45.8593 -2.6451 -8.99022 39.8169 -1.20512 
